<svg t="1751726197774" class="icon" viewBox="0 0 1024 1024" version="1.1" xmlns="http://www.w3.org/2000/svg"
     p-id="16269" width="32" height="32">
    <path d="M981.873319 0c0 0-409.638476 4.012382-447.792429 42.167357L29.841896 546.405328c-37.734397 37.734397-37.734397 98.913751 0 136.648148l312.644447 312.64547c37.734397 37.734397 98.913751 37.734397 136.648148 0l504.238994-504.238994c38.153953-38.153953 40.60477-449.558654 40.60477-449.558654C1023.091049 19.059068 1004.719642 0.776689 981.873319 0zM757.75914 367.602102 757.75914 367.602102c-27.564785 27.564785-72.255615 27.564785-99.8204 0l0 0c-27.564785-27.564785-27.564785-72.255615 0-99.8204l0 0c27.564785-27.564785 72.255615-27.564785 99.8204 0l0 0C785.323926 295.346487 785.323926 340.037317 757.75914 367.602102z"
          fill="#CD5555" p-id="16270"></path>
</svg>
