<?xml version="1.0" standalone="no"?><!DOCTYPE svg PUBLIC "-//W3C//DTD SVG 1.1//EN"
    "http://www.w3.org/Graphics/SVG/1.1/DTD/svg11.dtd">
<svg t="1760668418025" class="icon" viewBox="0 0 1024 1024" version="1.1"
     xmlns="http://www.w3.org/2000/svg" p-id="9632" width="32" height="200">
    <path d="M557.376 15.68a73.408 73.408 0 0 0-97.088 5.696L21.376 460.288l-5.696 6.4a73.408 73.408 0 0 0 5.696 97.024l438.912 438.912 6.4 5.696a73.408 73.408 0 0 0 97.024-5.696l438.912-438.912 5.696-6.336a73.408 73.408 0 0 0-5.696-97.088L563.712 21.376l-6.4-5.696zM105.408 512L512 105.408 918.592 512 512 918.592 105.408 512zM512 272a240 240 0 1 0 0 480 240 240 0 0 0 0-480z m0 96a144 144 0 1 1 0 288 144 144 0 0 1 0-288z"
          p-id="9633" data-spm-anchor-id="a313x.search_index.0.i45.29543a81aRv0Ij"
          fill="#FF8B00"></path>
</svg>
