<?xml version="1.0" standalone="no"?><!DOCTYPE svg PUBLIC "-//W3C//DTD SVG 1.1//EN" "http://www.w3.org/Graphics/SVG/1.1/DTD/svg11.dtd"><svg t="1750862799027" class="icon" viewBox="0 0 1024 1024" version="1.1" xmlns="http://www.w3.org/2000/svg" p-id="13244" xmlns:xlink="http://www.w3.org/1999/xlink" width="32" height="32"><path d="M606.336 105.8176l88.9984-88.9984c22.4256-22.4256 59.328-22.4256 81.7536 0L1007.1808 246.912c22.4256 22.4256 22.4256 59.328 0 81.7536l-88.9984 88.9984c-22.4256 22.4384-59.328 22.4384-81.7664 0L606.336 187.584c-22.4384-23.168-22.4384-59.3408 0-81.7664z m-138.2016 137.472L16.64 694.784C5.7856 705.6384 0 720.128 0 736.0256v230.0928A58.048 58.048 0 0 0 57.8816 1024h230.0928c15.1936 0 30.3872-5.7856 41.2416-16.64l451.4944-451.4944c22.4256-22.4256 22.4256-59.328 0-81.7664L549.888 243.2896c-22.4384-22.4256-58.624-22.4256-81.7664 0z m115.7632 674.3552h345.1392a52.6464 52.6464 0 0 1 52.8128 52.8128c0 28.9408-23.872 52.8128-52.8128 52.8128H583.8976a52.6464 52.6464 0 0 1-52.8128-52.8128 52.6464 52.6464 0 0 1 52.8128-52.8128z m185.9584-185.9584H929.024a52.6464 52.6464 0 0 1 52.8128 52.8256c0 28.928-23.872 52.8128-52.8128 52.8128H769.856a52.6464 52.6464 0 0 1-52.8256-52.8128 52.6464 52.6464 0 0 1 52.8256-52.8256z" fill="#E60B00" p-id="13245"></path></svg>