<?xml version="1.0" standalone="no"?><!DOCTYPE svg PUBLIC "-//W3C//DTD SVG 1.1//EN" "http://www.w3.org/Graphics/SVG/1.1/DTD/svg11.dtd"><svg t="1750670401593" class="icon" viewBox="0 0 1024 1024" version="1.1" xmlns="http://www.w3.org/2000/svg" p-id="3549" xmlns:xlink="http://www.w3.org/1999/xlink" width="32" height="32"><path d="M701.6 768.8H320.4c-17.7 0-32-14.3-32-32s14.3-32 32-32h381.2c17.7 0 32 14.3 32 32s-14.4 32-32 32z" fill="#666666" p-id="3550"></path><path d="M866.6 960.2H159.8c-33.9 0-61.5-27.7-61.5-61.7V125.7c0-34 27.6-61.7 61.5-61.7h531c17.7 0 32 14.3 32 32s-14.3 32-32 32H162.3v768.3h701.9V320.5c0-17.7 14.3-32 32-32s32 14.3 32 32v578c0 34-27.6 61.7-61.6 61.7z" fill="#666666" p-id="3551"></path><path d="M703 512.4H319.7c-17.7 0-32-14.3-32-32s14.3-32 32-32H703c17.7 0 32 14.3 32 32s-14.4 32-32 32zM703 640.2H319.7c-17.7 0-32-14.3-32-32s14.3-32 32-32H703c17.7 0 32 14.3 32 32s-14.4 32-32 32zM895.7 351.5H704.1c-35.3 0-64-28.7-64-64V95.9c0-17.7 14.3-32 32-32s32 14.3 32 32v191.5l0.1 0.1h191.5c17.7 0 32 14.3 32 32s-14.3 32-32 32z" fill="#666666" p-id="3552"></path><path d="M896 352.5c-8.7 0-17.4-3.5-23.7-10.5l-202-222.2c-11.9-13.1-10.9-33.3 2.2-45.2 13.1-11.9 33.3-10.9 45.2 2.2l202 222.2c11.9 13.1 10.9 33.3-2.2 45.2-6.1 5.5-13.8 8.3-21.5 8.3z" fill="#666666" p-id="3553"></path></svg>