<?xml version="1.0" standalone="no"?><!DOCTYPE svg PUBLIC "-//W3C//DTD SVG 1.1//EN" "http://www.w3.org/Graphics/SVG/1.1/DTD/svg11.dtd"><svg t="1751602693809" class="icon" viewBox="0 0 1024 1024" version="1.1" xmlns="http://www.w3.org/2000/svg" p-id="1717" xmlns:xlink="http://www.w3.org/1999/xlink" width="32" height="32"><path d="M513.1776 511.3344m-450.816 0a450.816 450.816 0 1 0 901.632 0 450.816 450.816 0 1 0-901.632 0Z" fill="#FFF1DC" p-id="1718"></path><path d="M588.1856 491.776h10.3936c42.496 0.1536 84.992-0.3584 127.488 0.6656 28.9792 0.7168 54.528 26.5216 55.296 55.552 0.9728 36.1984 0.6656 72.3968 0.512 108.5952-0.0512 13.8752-8.3456 21.0944-22.9376 21.1456-43.008 0.0512-86.0672 0-129.0752 0H270.8992c-19.968 0-26.624-6.5024-26.5728-26.3168 0.1024-34.6112-0.3072-69.2736 0.6656-103.8848 0.768-28.416 26.5728-54.4256 54.9376-55.1424 42.496-1.024 84.992-0.5632 127.488-0.7168h10.9056c-1.1264-14.336-5.7856-26.8288-12.544-38.1952a359.51104 359.51104 0 0 0-26.2144-38.144c-49.2032-62.6688-38.8096-153.856 23.6544-203.4176 63.4368-50.432 156.0064-38.3488 204.9536 26.7264 43.1616 57.3952 39.4752 131.2768-9.472 186.2144-15.9744 17.92-26.0608 38.5024-30.208 62.0544-0.3072 1.3824-0.2048 2.6624-0.3072 4.864zM778.0352 727.7056c-4.9664-5.5296-14.4384-12.1856-31.1808-12.1856-162.6624 0-304.7936 0-467.456 0.0512-4.6592 0-8.7552 0.4096-12.5952 1.28-16.5888 3.7888-27.5968 18.5856-26.7264 35.9424 0.9216 17.664 13.3632 30.72 30.9248 32.512 3.6864 0.3584 7.2704 0.3584 10.4448 0.3584h464.128c3.3792 0 7.2192 0 11.264-0.512 16.0768-2.0992 27.648-13.9264 29.3888-30.1568 1.0752-10.6496-1.7408-20.1216-8.192-27.2896z" fill="#FC7032" p-id="1719"></path><path d="M670.8736 677.7856a430.9504 430.9504 0 0 0 85.0432-175.2064c-8.7552-6.0928-19.0464-9.8304-29.8496-10.0864-42.496-1.024-84.992-0.512-127.488-0.6656h-10.3936c0.1024-2.2528 0-3.5328 0.256-4.7616 4.1472-23.552 14.2336-44.1344 30.208-62.0544 48.9472-54.9376 52.6336-128.8704 9.472-186.2144-48.9472-65.0752-141.4656-77.1584-204.9536-26.7264-62.4128 49.6128-72.8576 140.8-23.6544 203.4176 9.5232 12.1344 18.3296 24.9344 26.2144 38.144 6.7584 11.3664 11.4688 23.8592 12.544 38.1952h-10.9056c-42.496 0.1536-84.992-0.3072-127.488 0.7168-28.3648 0.6656-54.1184 26.7264-54.9376 55.1424-0.9728 34.6112-0.5632 69.2736-0.6656 103.8848-0.0512 19.7632 6.656 26.3168 26.5728 26.3168h358.9632c13.7216-0.1024 27.392-0.1024 41.0624-0.1024zM279.3472 715.5712c-4.6592 0-8.7552 0.4096-12.5952 1.28-16.5888 3.7888-27.5968 18.5856-26.7264 35.9424 0.9216 17.664 13.3632 30.72 30.9248 32.512 3.6864 0.3584 7.2704 0.3584 10.4448 0.3584H542.0544a434.944 434.944 0 0 0 94.5664-70.1952c-119.3984 0.0512-232.2944 0.0512-357.2736 0.1024z" fill="#FF7C33" p-id="1720"></path><path d="M647.936 273.9712c-4.864-12.1856-11.4688-24.064-19.8656-35.2768-48.9472-65.0752-141.4656-77.1584-204.9536-26.7264-62.4128 49.6128-72.8576 140.8-23.6544 203.4176 9.5232 12.1344 18.3296 24.9344 26.2144 38.144 6.7584 11.3664 11.4688 23.8592 12.544 38.1952h-10.9056c-42.496 0.1536-84.992-0.3072-127.488 0.7168-28.3648 0.6656-54.1184 26.7264-54.9376 55.1424-0.9728 34.6112-0.5632 69.2736-0.6656 103.8848-0.0512 19.7632 6.656 26.3168 26.5728 26.3168h24.576c194.2016-36.096 342.784-201.6768 352.5632-403.8144z" fill="#FF9552" p-id="1721"></path><path d="M531.712 182.1696c-37.376-5.0688-76.6464 4.4544-108.5952 29.8496-62.4128 49.6128-72.8576 140.8-23.6544 203.4176 0.4096 0.5632 0.8704 1.1264 1.28 1.6896 66.2528-61.2352 113.2032-142.8992 130.9696-234.9568z" fill="#FFA56A" p-id="1722"></path></svg>