<?xml version="1.0" standalone="no"?><!DOCTYPE svg PUBLIC "-//W3C//DTD SVG 1.1//EN"
        "http://www.w3.org/Graphics/SVG/1.1/DTD/svg11.dtd">
<svg t="1750862862996" class="icon" viewBox="0 0 1024 1024" version="1.1" xmlns="http://www.w3.org/2000/svg"
     p-id="16083" width="32" height="32">
    <path d="M610.923563 0L937.94958 341.473882v563.156975c0 66.043697-36.399328 119.283092-103.028168 119.283093H214.704403C148.075563 1023.91395 86.05042 970.674555 86.05042 904.630857V119.283092C86.05042 53.239395 148.075563 0 214.704403 0h396.21916z"
          fill="#FA9543" p-id="16084"></path>
    <path d="M937.450487 481.675832L86.05042 768.421647V119.283092C86.05042 53.248 147.998118 0 214.549513 0h396.262184l326.63879 341.482487v140.193345z"
          fill="#FFA255" p-id="16085"></path>
    <path d="M937.94958 341.465277l-186.583126-0.507697c-66.637445 0-140.451496-58.875697-140.451496-124.91079V0L937.94958 341.465277z"
          fill="#FA9543" p-id="16086"></path>
    <path d="M583.249748 691.139765h191.178218c13.845513 0 25.118118-11.255395 25.118118-24.567395V567.760672c0-13.819697-11.272605-24.576-25.118118-24.576H583.249748c-13.845513 0-25.126723 11.272605-25.126723 24.576v14.336H456.65237l-71.766051-70.131092c0.516303-2.056605 0.516303-4.104605 0.516303-6.152605V436.705882c32.294723-10.756303 54.332235-40.96 54.332235-74.752 0-43.507092-35.366723-78.839395-78.93405-78.839395s-78.93405 35.323697-78.934051 78.839395c0 34.308303 22.046118 63.488 52.800538 74.235698v67.584L236.759126 599.496067c-4.620908 4.603697-7.692908 10.756303-7.692908 17.408 0 6.651697 2.564303 12.795697 7.692908 17.408L334.650084 730.051765v105.463395a25.68605 25.68605 0 0 0 25.625815 25.6H558.123025v27.639395c0 13.828303 11.272605 24.576 25.118118 24.576h191.178218c13.845513 0 25.118118-11.264 25.118118-24.576V789.951462c0-13.819697-11.272605-24.576-25.118118-24.576H583.249748c-13.845513 0-25.126723 11.264-25.126723 24.576v20.48H385.918924V721.859765l89.182656-87.031395 2.056605-2.048h80.973445v33.792c0 13.312 11.28121 24.567395 25.126723 24.567395z m25.109513-98.803093H748.810756v49.659698H608.376471v-49.659698z m0 222.182185H748.810756v49.668303H608.376471v-49.659698zM356.179899 680.90837l-65.60484-63.987093 65.60484-63.995697 65.613446 63.995697-65.613446 63.995698z"
          fill="#FFFFFF" p-id="16087"></path>
</svg>
