<?xml version="1.0" standalone="no"?><!DOCTYPE svg PUBLIC "-//W3C//DTD SVG 1.1//EN" "http://www.w3.org/Graphics/SVG/1.1/DTD/svg11.dtd"><svg t="1750862695243" class="icon" viewBox="0 0 1024 1024" version="1.1" xmlns="http://www.w3.org/2000/svg" p-id="2811" xmlns:xlink="http://www.w3.org/1999/xlink" width="32" height="32"><path d="M1023.91107 511.99808c5.11913 317.769979-194.079007 516.712159-511.912975 511.912975-317.769979 4.927162-516.712159-194.079007-511.912975-511.912975-4.799184-317.769979 194.142996-516.712159 511.912975-511.912974 317.70599-4.799184 516.712159 194.142996 511.912975 511.912974z" fill="#FFBC50" p-id="2812"></path><path d="M1022.375331 566.64479c-15.549357-226.201546-170.147075-365.441875-407.994641-361.730505-254.036814-4.095304-413.561695 155.365588-409.53038 409.530379-3.903336 237.911555 135.52896 392.445284 361.538538 407.994641a456.114461 456.114461 0 0 0 455.986483-455.794515z" fill="#FFB042" p-id="2813"></path><path d="M1015.400516 629.674075a276.433006 276.433006 0 0 0-298.70122-220.314546 280.912245 280.912245 0 0 0-307.147785 307.147785 276.433006 276.433006 0 0 0 220.122579 298.893188 443.76456 443.76456 0 0 0 385.726426-385.726427z" fill="#FFA527" p-id="2814"></path><path d="M997.547551 705.629163a189.279822 189.279822 0 0 0-178.52965-91.312477 187.232171 187.232171 0 0 0-204.765189 204.76519 189.151844 189.151844 0 0 0 91.120509 178.52965 431.158703 431.158703 0 0 0 292.17433-291.982363z" fill="#FF9705" p-id="2815"></path><path d="M276.582116 215.152544h143.335632a54.262775 54.262775 0 0 1 61.429557 61.429557v143.335633a54.262775 54.262775 0 0 1-61.429557 61.429557h-143.335632a54.262775 54.262775 0 0 1-61.429557-61.429557v-143.335633a54.262775 54.262775 0 0 1 61.365567-61.429557z" fill="#FFFFFF" opacity=".7" p-id="2816"></path><path d="M276.582116 542.712859h143.335632a54.262775 54.262775 0 0 1 61.429557 61.429557v143.335633a54.262775 54.262775 0 0 1-61.429557 61.429557h-143.335632a54.262775 54.262775 0 0 1-61.429557-61.429557V604.142416a54.262775 54.262775 0 0 1 61.365567-61.429557z" fill="#FFFFFF" opacity=".7" p-id="2817"></path><path d="M604.14243 215.152544h143.335633a54.262775 54.262775 0 0 1 61.429557 61.429557v143.335633a54.262775 54.262775 0 0 1-61.429557 61.429557H604.14243a54.262775 54.262775 0 0 1-61.429557-61.429557v-143.335633a54.262775 54.262775 0 0 1 61.365568-61.429557z" fill="#FFFFFF" opacity=".7" p-id="2818"></path><path d="M573.427652 542.712859a27.131388 27.131388 0 0 1 30.714778 30.714778v204.76519a27.131388 27.131388 0 0 1-30.714778 30.714779 27.131388 27.131388 0 0 1-30.714779-30.714779v-204.76519a27.131388 27.131388 0 0 1 30.714779-30.714778z" fill="#FFFFFF" p-id="2819"></path><path d="M676.002214 604.142416a27.131388 27.131388 0 0 1 30.714779 30.714778v143.335633a27.131388 27.131388 0 0 1-30.714779 30.714779 27.131388 27.131388 0 0 1-30.714778-30.714779V634.857194a27.131388 27.131388 0 0 1 30.522811-30.714778z" fill="#FFFFFF" p-id="2820"></path><path d="M778.128853 542.712859a27.131388 27.131388 0 0 1 30.714778 30.714778v204.76519a27.131388 27.131388 0 0 1-30.714778 30.714779 27.131388 27.131388 0 0 1-30.714779-30.714779v-204.76519a27.131388 27.131388 0 0 1 30.714779-30.714778z" fill="#FFFFFF" p-id="2821"></path></svg>