<?xml version="1.0" standalone="no"?><!DOCTYPE svg PUBLIC "-//W3C//DTD SVG 1.1//EN" "http://www.w3.org/Graphics/SVG/1.1/DTD/svg11.dtd"><svg t="1750862941796" class="icon" viewBox="0 0 1024 1024" version="1.1" xmlns="http://www.w3.org/2000/svg" p-id="22398" xmlns:xlink="http://www.w3.org/1999/xlink" width="32" height="32"><path d="M768 1024H256C115.2 1024 0 908.8 0 768V256C0 115.2 115.2 0 256 0h512c140.8 0 256 115.2 256 256v512c0 140.8-115.2 256-256 256z" fill="#0EB4F6" p-id="22399"></path><path d="M294.4 264.533c-25.6 0-44.8 19.2-44.8 44.8v44.8c0 25.6 19.2 44.8 44.8 44.8h405.333c25.6 0 44.8-19.2 44.8-44.8v-44.8c0-25.6-19.2-44.8-44.8-44.8H294.4z m-44.8 270.934c0 25.6 21.333 44.8 44.8 44.8h44.8c25.6 0 44.8-19.2 44.8-44.8v-44.8c0-25.6-21.333-44.8-44.8-44.8h-44.8c-25.6 0-44.8 19.2-44.8 44.8v44.8z m179.2 0c0 25.6 19.2 44.8 44.8 44.8h44.8c25.6 0 44.8-19.2 44.8-44.8v-44.8c0-25.6-19.2-44.8-44.8-44.8h-44.8c-25.6 0-44.8 19.2-44.8 44.8v44.8z m181.333 0c0 25.6 21.334 44.8 44.8 44.8h44.8c25.6 0 44.8-19.2 44.8-44.8v-44.8c0-25.6-21.333-44.8-44.8-44.8h-44.8c-25.6 0-44.8 19.2-44.8 44.8v44.8zM249.6 714.667c0 25.6 19.2 44.8 44.8 44.8h44.8c25.6 0 44.8-19.2 44.8-44.8v-44.8c0-25.6-19.2-44.8-44.8-44.8h-44.8c-25.6 0-44.8 19.2-44.8 44.8v44.8z m179.2 0c0 25.6 19.2 44.8 44.8 44.8h44.8c25.6 0 44.8-21.334 44.8-44.8v-44.8c0-25.6-19.2-44.8-44.8-44.8h-44.8c-25.6 0-44.8 21.333-44.8 44.8v44.8z m181.333 0c0 25.6 19.2 44.8 44.8 44.8h44.8c25.6 0 44.8-19.2 44.8-44.8v-44.8c0-25.6-19.2-44.8-44.8-44.8h-44.8c-25.6 0-44.8 19.2-44.8 44.8v44.8z" fill="#FFFFFF" p-id="22400"></path></svg>