<?xml version="1.0" standalone="no"?><!DOCTYPE svg PUBLIC "-//W3C//DTD SVG 1.1//EN" "http://www.w3.org/Graphics/SVG/1.1/DTD/svg11.dtd"><svg t="1750670429696" class="icon" viewBox="0 0 1024 1024" version="1.1" xmlns="http://www.w3.org/2000/svg" p-id="4547" xmlns:xlink="http://www.w3.org/1999/xlink" width="32" height="32"><path d="M832 64h-640A106.666667 106.666667 0 0 0 85.333333 170.666667v170.666666c0 11.946667 9.386667 21.333333 21.333334 21.333334H213.333333V938.666667c0 7.253333 3.413333 13.653333 9.386667 17.493333 5.973333 3.84 13.226667 4.693333 19.626667 2.133333l341.76-135.253333 324.693333 135.253333c2.56 1.28 5.546667 1.706667 8.106667 1.706667 4.266667 0 8.106667-1.28 11.946666-3.413333 6.4-4.266667 9.813333-10.666667 9.813334-17.92V170.666667a106.666667 106.666667 0 0 0-106.666667-106.666667zM896 906.666667l-303.36-126.293334a21.333333 21.333333 0 0 0-16.213333 0L256 907.093333V192c0-11.946667-9.386667-21.333333-21.333333-21.333333s-21.333333 9.386667-21.333334 21.333333v128H128V170.666667c0-35.413333 28.586667-64 64-64h640c35.413333 0 64 28.586667 64 64v736z" fill="#666666" p-id="4548"></path><path d="M429.653333 405.333333h164.693334c11.946667 0 21.333333-9.386667 21.333333-21.333333s-9.386667-21.333333-21.333333-21.333333h-164.693334c-11.946667 0-21.333333 9.386667-21.333333 21.333333s9.386667 21.333333 21.333333 21.333333zM722.346667 533.333333h-292.693334c-11.946667 0-21.333333 9.386667-21.333333 21.333334s9.386667 21.333333 21.333333 21.333333h292.693334c11.946667 0 21.333333-9.386667 21.333333-21.333333s-9.386667-21.333333-21.333333-21.333334z" fill="#666666" p-id="4549"></path></svg>