<?xml version="1.0" standalone="no"?><!DOCTYPE svg PUBLIC "-//W3C//DTD SVG 1.1//EN"
        "http://www.w3.org/Graphics/SVG/1.1/DTD/svg11.dtd">
<svg t="1751612499257" class="icon" viewBox="0 0 1024 1024" version="1.1" xmlns="http://www.w3.org/2000/svg" p-id="3250"
     width="32" height="32">
    <path d="M85.418667 512L512.021333 85.397333 938.624 512 512.021333 938.602667z" fill="#FFFCEB" p-id="3251"></path>
    <path d="M512 714.453333A32 32 0 0 1 480 682.666667v-138.666667H341.333333a32 32 0 1 1 0-64h138.666667V341.333333a32 32 0 0 1 64 0v138.666667H682.666667a32 32 0 0 1 0 64h-138.666667V682.666667a32 32 0 0 1-32 31.786666z"
          fill="#FF8B00" p-id="3252"></path>
    <path d="M512 970.453333a66.56 66.56 0 0 1-47.146667-19.626666L72.96 558.933333a66.346667 66.346667 0 0 1 0-94.293333L464.853333 72.533333a68.266667 68.266667 0 0 1 94.293334 0l391.893333 392.106667a66.346667 66.346667 0 0 1 0 94.293333L559.146667 950.826667a66.56 66.56 0 0 1-47.146667 19.626666z m0-853.333333a2.986667 2.986667 0 0 0-1.92 0L118.186667 509.866667a2.56 2.56 0 0 0 0 3.626666l391.893333 392.106667a3.2 3.2 0 0 0 3.84 0l391.893333-392.106667a2.986667 2.986667 0 0 0 0-3.626666L513.92 117.76a2.986667 2.986667 0 0 0-1.92-0.64z"
          fill="#FF8B00" p-id="3253"></path>
</svg>
