<?xml version="1.0" standalone="no"?><!DOCTYPE svg PUBLIC "-//W3C//DTD SVG 1.1//EN" "http://www.w3.org/Graphics/SVG/1.1/DTD/svg11.dtd"><svg t="1750863009109" class="icon" viewBox="0 0 1024 1024" version="1.1" xmlns="http://www.w3.org/2000/svg" p-id="24329" xmlns:xlink="http://www.w3.org/1999/xlink" width="32" height="32"><path d="M799.5904 927.232H232.448A112.64 112.64 0 0 1 120.1152 814.08V206.592A112.64 112.64 0 0 1 232.448 93.184h485.4784a35.84 35.84 0 0 1 25.1392 10.24L901.12 260.2496a36.4544 36.4544 0 0 1 10.752 25.856V814.08a112.64 112.64 0 0 1-112.2816 113.152z" fill="#FFAC3E" p-id="24330"></path><path d="M620.3392 450.816H411.6992a99.1232 99.1232 0 0 1-99.1232-99.1744V93.184h406.8864v258.4576a99.1232 99.1232 0 0 1-99.1232 99.1744z" fill="#FF7C0E" p-id="24331"></path><path d="M602.9312 361.6256h-112.64a40.96 40.96 0 0 1 0-81.92h112.64a40.96 40.96 0 1 1 0 81.92z" fill="#FFFFFF" p-id="24332"></path></svg>