<?xml version="1.0" standalone="no"?><!DOCTYPE svg PUBLIC "-//W3C//DTD SVG 1.1//EN" "http://www.w3.org/Graphics/SVG/1.1/DTD/svg11.dtd"><svg t="1751612347166" class="icon" viewBox="0 0 1024 1024" version="1.1" xmlns="http://www.w3.org/2000/svg" p-id="4079" xmlns:xlink="http://www.w3.org/1999/xlink" width="32" height="32"><path d="M85.418667 512L512.021333 85.397333 938.624 512 512.021333 938.602667z" fill="#FFFCEB" p-id="4080"></path><path d="M512 970.24a66.346667 66.346667 0 0 1-47.146667-19.413333L72.96 558.72a66.346667 66.346667 0 0 1 0-94.08L464.853333 72.533333a68.266667 68.266667 0 0 1 94.293334 0l392.106666 392.106667a66.773333 66.773333 0 0 1 0 94.08L559.146667 950.826667a66.346667 66.346667 0 0 1-47.146667 19.413333z m0-853.333333a2.986667 2.986667 0 0 0-1.92 0L118.186667 509.866667a2.56 2.56 0 0 0 0 3.626666l391.893333 392.106667a3.2 3.2 0 0 0 3.84 0l391.893333-392.106667a2.56 2.56 0 0 0 0-3.626666L513.92 117.76a2.986667 2.986667 0 0 0-1.92-0.64z" fill="#FF8B00" p-id="4081"></path><path d="M554.666667 516.266667l107.946666-107.946667a30.506667 30.506667 0 0 0-42.666666-42.666667L512 473.173333l-107.946667-107.946666a30.506667 30.506667 0 0 0-42.666666 42.666666L469.333333 516.266667l-108.8 107.946666a30.506667 30.506667 0 1 0 42.666667 42.666667l108.8-107.306667 106.666667 107.733334a30.506667 30.506667 0 0 0 42.666666-42.666667z" fill="#FF8B00" p-id="4082"></path></svg>